<svg xmlns="http://www.w3.org/2000/svg" xmlns:xlink="http://www.w3.org/1999/xlink" width="500" zoomAndPan="magnify" viewBox="0 0 375 374.999991" height="500" preserveAspectRatio="xMidYMid meet" version="1.2"><defs><clipPath id="44a825e60f"><path d="M 45 77 L 337.1875 77 L 337.1875 317.925781 L 45 317.925781 Z M 45 77 "/></clipPath><clipPath id="b5cfb679a8"><path d="M 0 48.179688 L 118 48.179688 L 118 139 L 0 139 Z M 0 48.179688 "/></clipPath><clipPath id="4c4d494039"><path d="M 0 37.5 L 128.71875 37.5 L 128.71875 141.433594 L 0 141.433594 Z M 0 37.5 "/></clipPath></defs><g id="59a2084d80"><rect x="0" width="375" y="0" height="374.999991" style="fill:#ffffff;fill-opacity:1;stroke:none;"/><rect x="0" width="375" y="0" height="374.999991" style="fill:#ffffff;fill-opacity:1;stroke:none;"/><g clip-rule="nonzero" clip-path="url(#44a825e60f)"><path style=" stroke:none;fill-rule:nonzero;fill:#00a2ff;fill-opacity:1;" d="M 288.160156 276.796875 C 285.71875 274.355469 282.339844 272.839844 278.601562 272.839844 C 274.871094 272.839844 271.488281 274.355469 269.046875 276.796875 C 266.601562 279.242188 265.089844 282.621094 265.089844 286.355469 C 265.089844 290.085938 266.601562 293.46875 269.046875 295.910156 C 271.488281 298.355469 274.871094 299.867188 278.601562 299.867188 C 282.339844 299.867188 285.71875 298.355469 288.160156 295.910156 C 290.601562 293.46875 292.117188 290.085938 292.117188 286.355469 C 292.117188 282.621094 290.601562 279.238281 288.160156 276.796875 M 126.152344 152.691406 C 132.992188 132.457031 145.539062 114.867188 161.863281 101.859375 C 180.664062 86.878906 204.464844 77.929688 230.328125 77.929688 C 255.859375 77.929688 279.390625 86.667969 298.089844 101.332031 C 317.167969 116.289062 331.1875 137.425781 337.132812 161.734375 L 314.792969 167.136719 C 310.097656 147.953125 299.027344 131.257812 283.949219 119.4375 C 269.207031 107.882812 250.589844 100.988281 230.328125 100.988281 C 209.84375 100.988281 191.023438 108.054688 176.191406 119.875 C 163.585938 129.917969 153.832031 143.371094 148.347656 158.828125 C 150.929688 160.007812 153.425781 161.332031 155.835938 162.792969 C 167.191406 169.667969 176.523438 179.570312 182.699219 191.371094 L 162.339844 202 C 158.109375 193.917969 151.722656 187.136719 143.945312 182.425781 C 136.492188 177.914062 127.679688 175.316406 118.1875 175.316406 C 104.445312 175.316406 92.003906 180.882812 83.003906 189.886719 C 74.003906 198.882812 68.433594 211.328125 68.433594 225.066406 C 68.433594 238.8125 74.003906 251.253906 83.003906 260.253906 C 92.003906 269.257812 104.445312 274.824219 118.1875 274.824219 L 250.027344 274.824219 C 251.589844 270.953125 253.917969 267.476562 256.820312 264.574219 C 262.394531 258.996094 270.097656 255.546875 278.601562 255.546875 C 287.105469 255.546875 294.816406 258.996094 300.386719 264.574219 C 305.964844 270.144531 309.414062 277.851562 309.414062 286.355469 C 309.414062 294.863281 305.964844 302.5625 300.386719 308.140625 C 294.816406 313.714844 287.105469 317.164062 278.601562 317.164062 C 270.097656 317.164062 262.394531 313.714844 256.820312 308.140625 C 253.917969 305.234375 251.589844 301.757812 250.027344 297.886719 L 118.1875 297.886719 C 98.085938 297.886719 79.878906 289.734375 66.703125 276.558594 C 53.523438 263.382812 45.375 245.171875 45.375 225.070312 C 45.375 204.96875 53.523438 186.761719 66.703125 173.582031 C 79.875 160.40625 98.085938 152.253906 118.1875 152.253906 C 120.875 152.253906 123.535156 152.402344 126.152344 152.691406 Z M 126.152344 152.691406 "/></g><g clip-rule="nonzero" clip-path="url(#b5cfb679a8)"><path style=" stroke:none;fill-rule:nonzero;fill:#00a2ff;fill-opacity:1;" d="M 38.335938 57.722656 L 38.34375 57.71875 L 38.390625 57.714844 C 38.628906 57.6875 38.871094 57.664062 39.113281 57.644531 L 39.148438 57.640625 L 39.496094 57.613281 L 39.523438 57.613281 L 39.878906 57.585938 L 39.910156 57.585938 L 40.269531 57.566406 L 40.292969 57.5625 L 40.660156 57.546875 L 40.675781 57.546875 L 41.046875 57.53125 L 41.058594 57.53125 L 41.4375 57.519531 L 41.445312 57.519531 L 41.832031 57.515625 L 41.835938 57.515625 L 42.21875 57.511719 L 42.609375 57.515625 L 42.613281 57.515625 L 42.996094 57.519531 L 43.003906 57.519531 L 43.378906 57.53125 L 43.394531 57.53125 L 43.765625 57.546875 L 43.785156 57.546875 L 44.152344 57.5625 L 44.175781 57.566406 L 44.535156 57.585938 L 44.558594 57.585938 L 44.914062 57.613281 L 44.945312 57.613281 L 45.296875 57.640625 L 45.332031 57.644531 C 45.574219 57.664062 45.816406 57.6875 46.054688 57.714844 L 46.097656 57.71875 L 46.105469 57.722656 C 52.976562 58.464844 59.25 61.160156 64.371094 65.234375 C 69.527344 69.34375 73.515625 74.851562 75.757812 81.171875 C 74.707031 81.65625 73.683594 82.195312 72.695312 82.792969 C 68.054688 85.605469 64.234375 89.660156 61.707031 94.484375 L 70.035156 98.832031 C 71.765625 95.523438 74.382812 92.75 77.5625 90.824219 C 80.609375 88.976562 84.214844 87.914062 88.097656 87.914062 C 93.71875 87.914062 98.8125 90.195312 102.492188 93.875 C 106.175781 97.558594 108.449219 102.648438 108.449219 108.269531 C 108.449219 113.890625 106.175781 118.980469 102.492188 122.664062 C 98.8125 126.347656 93.71875 128.621094 88.097656 128.621094 L -3.65625 128.621094 C -9.273438 128.621094 -14.367188 126.347656 -18.046875 122.664062 C -21.730469 118.980469 -24.011719 113.890625 -24.011719 108.269531 C -24.011719 102.648438 -21.730469 97.558594 -18.046875 93.875 C -14.367188 90.195312 -9.273438 87.914062 -3.65625 87.914062 C 0.230469 87.914062 3.832031 88.976562 6.882812 90.824219 C 10.0625 92.75 12.675781 95.523438 14.40625 98.832031 L 22.738281 94.484375 C 20.210938 89.65625 16.390625 85.605469 11.746094 82.792969 C 10.761719 82.195312 9.738281 81.65625 8.683594 81.171875 C 10.929688 74.851562 14.917969 69.34375 20.074219 65.234375 C 25.1875 61.160156 31.46875 58.464844 38.335938 57.722656 M 84.835938 78.660156 C 82.039062 70.386719 76.90625 63.1875 70.230469 57.867188 C 63.605469 52.585938 55.46875 49.140625 46.574219 48.285156 L 46.148438 48.246094 L 46.097656 48.242188 L 45.617188 48.203125 L 45.171875 48.171875 L 45.132812 48.167969 L 44.683594 48.140625 L 44.652344 48.140625 L 44.191406 48.121094 L 44.171875 48.121094 L 43.703125 48.101562 L 43.683594 48.101562 L 43.210938 48.089844 L 43.199219 48.089844 L 42.714844 48.082031 L 42.710938 48.082031 L 42.21875 48.078125 L 41.734375 48.082031 L 41.726562 48.082031 L 41.246094 48.089844 L 41.234375 48.089844 L 40.757812 48.097656 L 40.738281 48.097656 L 40.273438 48.117188 L 40.246094 48.117188 L 39.789062 48.140625 L 39.757812 48.140625 L 39.304688 48.167969 L 39.265625 48.171875 L 38.824219 48.203125 L 38.34375 48.242188 L 38.296875 48.246094 L 37.867188 48.285156 C 28.976562 49.140625 20.835938 52.589844 14.214844 57.867188 C 7.535156 63.1875 2.398438 70.386719 -0.398438 78.660156 C -1.46875 78.542969 -2.554688 78.484375 -3.65625 78.484375 C -11.878906 78.484375 -19.328125 81.816406 -24.71875 87.210938 C -30.109375 92.597656 -33.441406 100.046875 -33.441406 108.269531 C -33.441406 116.496094 -30.109375 123.941406 -24.71875 129.335938 C -19.328125 134.726562 -11.878906 138.058594 -3.65625 138.058594 L 88.097656 138.058594 C 96.320312 138.058594 103.769531 134.726562 109.160156 129.335938 C 114.546875 123.941406 117.886719 116.492188 117.886719 108.269531 C 117.886719 100.046875 114.546875 92.597656 109.160156 87.210938 C 103.769531 81.816406 96.320312 78.484375 88.097656 78.484375 C 86.996094 78.484375 85.910156 78.542969 84.835938 78.660156 Z M 84.835938 78.660156 "/></g><g clip-rule="nonzero" clip-path="url(#4c4d494039)"><path style=" stroke:none;fill-rule:nonzero;fill:#ffffff;fill-opacity:1;" d="M -33.5 37.5 L 128.894531 37.5 L 128.894531 141.433594 L -33.5 141.433594 Z M -33.5 37.5 "/></g></g></svg>