<svg xmlns="http://www.w3.org/2000/svg" xmlns:xlink="http://www.w3.org/1999/xlink" width="500" zoomAndPan="magnify" viewBox="0 0 375 374.999991" height="500" preserveAspectRatio="xMidYMid meet" version="1.2"><defs><clipPath id="d30e18227d"><path d="M 37 77 L 329.675781 77 L 329.675781 317.925781 L 37 317.925781 Z M 37 77 "/></clipPath><clipPath id="afb9e413c5"><path d="M 0 48.179688 L 111 48.179688 L 111 139 L 0 139 Z M 0 48.179688 "/></clipPath><clipPath id="34191eccb7"><path d="M 0 37.5 L 121.203125 37.5 L 121.203125 141.433594 L 0 141.433594 Z M 0 37.5 "/></clipPath></defs><g id="2cb78e864f"><g clip-rule="nonzero" clip-path="url(#d30e18227d)"><path style=" stroke:none;fill-rule:nonzero;fill:#00a2ff;fill-opacity:1;" d="M 280.648438 276.796875 C 278.207031 274.355469 274.828125 272.839844 271.089844 272.839844 C 267.359375 272.839844 263.976562 274.355469 261.53125 276.796875 C 259.089844 279.242188 257.578125 282.621094 257.578125 286.355469 C 257.578125 290.085938 259.089844 293.46875 261.53125 295.910156 C 263.976562 298.355469 267.359375 299.867188 271.089844 299.867188 C 274.824219 299.867188 278.207031 298.355469 280.648438 295.910156 C 283.089844 293.46875 284.605469 290.085938 284.605469 286.355469 C 284.605469 282.621094 283.089844 279.238281 280.648438 276.796875 M 118.636719 152.691406 C 125.480469 132.457031 138.023438 114.867188 154.351562 101.859375 C 173.152344 86.878906 196.953125 77.929688 222.8125 77.929688 C 248.347656 77.929688 271.878906 86.667969 290.574219 101.332031 C 309.65625 116.289062 323.671875 137.425781 329.621094 161.734375 L 307.28125 167.136719 C 302.585938 147.953125 291.511719 131.257812 276.4375 119.4375 C 261.695312 107.882812 243.078125 100.988281 222.8125 100.988281 C 202.332031 100.988281 183.511719 108.054688 168.675781 119.875 C 156.070312 129.917969 146.320312 143.371094 140.835938 158.828125 C 143.414062 160.007812 145.914062 161.332031 148.324219 162.792969 C 159.679688 169.667969 169.007812 179.570312 175.1875 191.371094 L 154.828125 202 C 150.597656 193.917969 144.210938 187.136719 136.433594 182.425781 C 128.980469 177.914062 120.167969 175.316406 110.675781 175.316406 C 96.933594 175.316406 84.492188 180.882812 75.492188 189.886719 C 66.488281 198.882812 60.921875 211.328125 60.921875 225.066406 C 60.921875 238.8125 66.492188 251.253906 75.492188 260.253906 C 84.492188 269.257812 96.933594 274.824219 110.675781 274.824219 L 242.515625 274.824219 C 244.078125 270.953125 246.402344 267.476562 249.308594 264.574219 C 254.878906 258.996094 262.585938 255.546875 271.089844 255.546875 C 279.59375 255.546875 287.300781 258.996094 292.875 264.574219 C 298.449219 270.144531 301.902344 277.851562 301.902344 286.355469 C 301.902344 294.863281 298.453125 302.5625 292.875 308.140625 C 287.300781 313.714844 279.59375 317.164062 271.089844 317.164062 C 262.585938 317.164062 254.878906 313.714844 249.308594 308.140625 C 246.402344 305.234375 244.078125 301.757812 242.515625 297.886719 L 110.675781 297.886719 C 90.574219 297.886719 72.363281 289.734375 59.1875 276.558594 C 46.011719 263.382812 37.859375 245.171875 37.859375 225.070312 C 37.859375 204.96875 46.011719 186.761719 59.1875 173.582031 C 72.363281 160.40625 90.574219 152.253906 110.675781 152.253906 C 113.363281 152.253906 116.023438 152.402344 118.636719 152.691406 Z M 118.636719 152.691406 "/></g><g clip-rule="nonzero" clip-path="url(#afb9e413c5)"><path style=" stroke:none;fill-rule:nonzero;fill:#00a2ff;fill-opacity:1;" d="M 30.824219 57.722656 L 30.832031 57.71875 L 30.878906 57.714844 C 31.117188 57.6875 31.359375 57.664062 31.601562 57.644531 L 31.632812 57.640625 L 31.984375 57.613281 L 32.011719 57.613281 L 32.367188 57.585938 L 32.398438 57.585938 L 32.757812 57.566406 L 32.78125 57.5625 L 33.144531 57.546875 L 33.160156 57.546875 L 33.535156 57.53125 L 33.546875 57.53125 L 33.925781 57.519531 L 33.933594 57.519531 L 34.316406 57.515625 L 34.320312 57.515625 L 34.707031 57.511719 L 35.097656 57.515625 L 35.101562 57.515625 L 35.480469 57.519531 L 35.488281 57.519531 L 35.867188 57.53125 L 35.882812 57.53125 L 36.253906 57.546875 L 36.273438 57.546875 L 36.640625 57.5625 L 36.660156 57.566406 L 37.019531 57.585938 L 37.046875 57.585938 L 37.402344 57.613281 L 37.433594 57.613281 L 37.785156 57.640625 L 37.820312 57.644531 C 38.0625 57.664062 38.304688 57.6875 38.542969 57.714844 L 38.582031 57.71875 L 38.59375 57.722656 C 45.464844 58.464844 51.738281 61.160156 56.859375 65.234375 C 62.015625 69.34375 66.003906 74.851562 68.246094 81.171875 C 67.195312 81.65625 66.167969 82.195312 65.183594 82.792969 C 60.539062 85.605469 56.722656 89.660156 54.191406 94.484375 L 62.519531 98.832031 C 64.253906 95.523438 66.867188 92.75 70.046875 90.824219 C 73.09375 88.976562 76.703125 87.914062 80.585938 87.914062 C 86.207031 87.914062 91.300781 90.195312 94.980469 93.875 C 98.664062 97.558594 100.9375 102.648438 100.9375 108.269531 C 100.9375 113.890625 98.664062 118.980469 94.980469 122.664062 C 91.296875 126.347656 86.207031 128.621094 80.585938 128.621094 L -11.167969 128.621094 C -16.789062 128.621094 -21.878906 126.347656 -25.5625 122.664062 C -29.246094 118.980469 -31.523438 113.890625 -31.523438 108.269531 C -31.523438 102.648438 -29.242188 97.558594 -25.5625 93.875 C -21.878906 90.195312 -16.789062 87.914062 -11.167969 87.914062 C -7.28125 87.914062 -3.679688 88.976562 -0.628906 90.824219 C 2.550781 92.75 5.164062 95.523438 6.894531 98.832031 L 15.226562 94.484375 C 12.695312 89.65625 8.878906 85.605469 4.234375 82.792969 C 3.25 82.195312 2.226562 81.65625 1.171875 81.171875 C 3.417969 74.851562 7.40625 69.34375 12.5625 65.234375 C 17.675781 61.160156 23.957031 58.464844 30.824219 57.722656 M 77.324219 78.660156 C 74.527344 70.386719 69.394531 63.1875 62.71875 57.867188 C 56.09375 52.585938 47.953125 49.140625 39.0625 48.285156 L 38.636719 48.246094 L 38.585938 48.242188 L 38.105469 48.203125 L 37.660156 48.171875 L 37.621094 48.167969 L 37.171875 48.140625 L 37.140625 48.140625 L 36.679688 48.121094 L 36.65625 48.121094 L 36.1875 48.101562 L 36.171875 48.101562 L 35.699219 48.089844 L 35.6875 48.089844 L 35.203125 48.082031 L 35.199219 48.082031 L 34.707031 48.078125 L 34.21875 48.082031 L 34.210938 48.082031 L 33.730469 48.089844 L 33.71875 48.089844 L 33.242188 48.097656 L 33.226562 48.097656 L 32.761719 48.117188 L 32.734375 48.117188 L 32.277344 48.140625 L 32.246094 48.140625 L 31.792969 48.167969 L 31.753906 48.171875 L 31.3125 48.203125 L 30.832031 48.242188 L 30.78125 48.246094 L 30.355469 48.285156 C 21.464844 49.140625 13.324219 52.589844 6.699219 57.867188 C 0.0195312 63.1875 -5.113281 70.386719 -7.910156 78.660156 C -8.980469 78.542969 -10.066406 78.484375 -11.167969 78.484375 C -19.390625 78.484375 -26.839844 81.816406 -32.230469 87.210938 C -37.621094 92.597656 -40.957031 100.046875 -40.957031 108.269531 C -40.957031 116.496094 -37.621094 123.941406 -32.230469 129.335938 C -26.839844 134.726562 -19.390625 138.058594 -11.167969 138.058594 L 80.582031 138.058594 C 88.808594 138.058594 96.257812 134.726562 101.648438 129.335938 C 107.035156 123.941406 110.375 116.492188 110.375 108.269531 C 110.375 100.046875 107.035156 92.597656 101.648438 87.210938 C 96.257812 81.816406 88.808594 78.484375 80.582031 78.484375 C 79.484375 78.484375 78.398438 78.542969 77.324219 78.660156 Z M 77.324219 78.660156 "/></g><g clip-rule="nonzero" clip-path="url(#34191eccb7)"><path style=" stroke:none;fill-rule:nonzero;fill:#ffffff;fill-opacity:1;" d="M -41.011719 37.5 L 121.382812 37.5 L 121.382812 141.433594 L -41.011719 141.433594 Z M -41.011719 37.5 "/></g></g></svg>