<svg xmlns="http://www.w3.org/2000/svg" xmlns:xlink="http://www.w3.org/1999/xlink" width="500" zoomAndPan="magnify" viewBox="0 0 375 374.999991" height="500" preserveAspectRatio="xMidYMid meet" version="1.2"><defs><clipPath id="3a639a428d"><path d="M 23.617188 17.785156 L 351.382812 17.785156 L 351.382812 345.546875 L 23.617188 345.546875 Z M 23.617188 17.785156 "/></clipPath><clipPath id="73cd50484e"><path d="M 187.5 17.785156 C 96.992188 17.785156 23.617188 91.15625 23.617188 181.664062 C 23.617188 272.175781 96.992188 345.546875 187.5 345.546875 C 278.007812 345.546875 351.382812 272.175781 351.382812 181.664062 C 351.382812 91.15625 278.007812 17.785156 187.5 17.785156 Z M 187.5 17.785156 "/></clipPath><clipPath id="670c2f6049"><path d="M 97.464844 79.761719 L 291.714844 79.761719 L 291.714844 299.511719 L 97.464844 299.511719 Z M 97.464844 79.761719 "/></clipPath><clipPath id="e247f64b4e"><path d="M 154.890625 152.171875 L 227.207031 152.171875 L 227.207031 176.152344 L 154.890625 176.152344 Z M 154.890625 152.171875 "/></clipPath><clipPath id="91d3d306c8"><path d="M 166.882812 152.171875 L 215.164062 152.171875 C 218.34375 152.171875 221.394531 153.4375 223.644531 155.683594 C 225.890625 157.933594 227.15625 160.984375 227.15625 164.164062 C 227.15625 167.34375 225.890625 170.394531 223.644531 172.640625 C 221.394531 174.890625 218.34375 176.152344 215.164062 176.152344 L 166.882812 176.152344 C 163.703125 176.152344 160.652344 174.890625 158.402344 172.640625 C 156.15625 170.394531 154.890625 167.34375 154.890625 164.164062 C 154.890625 160.984375 156.15625 157.933594 158.402344 155.683594 C 160.652344 153.4375 163.703125 152.171875 166.882812 152.171875 Z M 166.882812 152.171875 "/></clipPath><clipPath id="096f90e421"><path d="M 155 146.671875 L 226.890625 146.671875 L 226.890625 187.171875 L 155 187.171875 Z M 155 146.671875 "/></clipPath></defs><g id="4cb902395d"><g clip-rule="nonzero" clip-path="url(#3a639a428d)"><g clip-rule="nonzero" clip-path="url(#73cd50484e)"><path style=" stroke:none;fill-rule:nonzero;fill:#d9d9d9;fill-opacity:1;" d="M 23.617188 17.785156 L 351.382812 17.785156 L 351.382812 345.546875 L 23.617188 345.546875 Z M 23.617188 17.785156 "/></g></g><path style=" stroke:none;fill-rule:nonzero;fill:#000000;fill-opacity:1;" d="M 178.917969 164.136719 C 178.917969 164.65625 178.867188 165.171875 178.765625 165.679688 C 178.664062 166.1875 178.511719 166.683594 178.316406 167.160156 C 178.117188 167.640625 177.875 168.09375 177.585938 168.527344 C 177.296875 168.957031 176.96875 169.355469 176.601562 169.722656 C 176.234375 170.089844 175.835938 170.417969 175.40625 170.707031 C 174.976562 170.996094 174.519531 171.238281 174.039062 171.4375 C 173.5625 171.632812 173.066406 171.785156 172.558594 171.886719 C 172.050781 171.988281 171.535156 172.039062 171.019531 172.039062 C 170.5 172.039062 169.984375 171.988281 169.476562 171.886719 C 168.96875 171.785156 168.472656 171.632812 167.996094 171.4375 C 167.515625 171.238281 167.0625 170.996094 166.628906 170.707031 C 166.199219 170.417969 165.800781 170.089844 165.433594 169.722656 C 165.066406 169.355469 164.738281 168.957031 164.449219 168.527344 C 164.160156 168.09375 163.917969 167.640625 163.71875 167.160156 C 163.523438 166.683594 163.371094 166.1875 163.269531 165.679688 C 163.167969 165.171875 163.117188 164.65625 163.117188 164.136719 C 163.117188 163.621094 163.167969 163.105469 163.269531 162.597656 C 163.371094 162.089844 163.523438 161.59375 163.71875 161.117188 C 163.917969 160.636719 164.160156 160.179688 164.449219 159.75 C 164.738281 159.320312 165.066406 158.921875 165.433594 158.554688 C 165.800781 158.1875 166.199219 157.859375 166.628906 157.570312 C 167.0625 157.28125 167.515625 157.039062 167.996094 156.839844 C 168.472656 156.644531 168.96875 156.492188 169.476562 156.390625 C 169.984375 156.289062 170.5 156.238281 171.019531 156.238281 C 171.535156 156.238281 172.050781 156.289062 172.558594 156.390625 C 173.066406 156.492188 173.5625 156.644531 174.039062 156.839844 C 174.519531 157.039062 174.976562 157.28125 175.40625 157.570312 C 175.835938 157.859375 176.234375 158.1875 176.601562 158.554688 C 176.96875 158.921875 177.296875 159.320312 177.585938 159.75 C 177.875 160.179688 178.117188 160.636719 178.316406 161.117188 C 178.511719 161.59375 178.664062 162.089844 178.765625 162.597656 C 178.867188 163.105469 178.917969 163.621094 178.917969 164.136719 Z M 178.917969 164.136719 "/><path style=" stroke:none;fill-rule:nonzero;fill:#000000;fill-opacity:1;" d="M 200.855469 164.136719 C 200.855469 164.65625 200.804688 165.171875 200.707031 165.679688 C 200.605469 166.1875 200.453125 166.683594 200.257812 167.160156 C 200.058594 167.640625 199.8125 168.09375 199.527344 168.527344 C 199.238281 168.957031 198.910156 169.355469 198.542969 169.722656 C 198.175781 170.089844 197.777344 170.417969 197.347656 170.707031 C 196.914062 170.996094 196.460938 171.238281 195.980469 171.4375 C 195.503906 171.632812 195.007812 171.785156 194.5 171.886719 C 193.992188 171.988281 193.476562 172.039062 192.957031 172.039062 C 192.441406 172.039062 191.925781 171.988281 191.417969 171.886719 C 190.910156 171.785156 190.414062 171.632812 189.9375 171.4375 C 189.457031 171.238281 189 170.996094 188.570312 170.707031 C 188.140625 170.417969 187.738281 170.089844 187.375 169.722656 C 187.007812 169.355469 186.679688 168.957031 186.390625 168.527344 C 186.101562 168.09375 185.859375 167.640625 185.660156 167.160156 C 185.460938 166.683594 185.3125 166.1875 185.210938 165.679688 C 185.109375 165.171875 185.058594 164.65625 185.058594 164.136719 C 185.058594 163.621094 185.109375 163.105469 185.210938 162.597656 C 185.3125 162.089844 185.460938 161.59375 185.660156 161.117188 C 185.859375 160.636719 186.101562 160.179688 186.390625 159.75 C 186.679688 159.320312 187.007812 158.921875 187.375 158.554688 C 187.738281 158.1875 188.140625 157.859375 188.570312 157.570312 C 189 157.28125 189.457031 157.039062 189.9375 156.839844 C 190.414062 156.644531 190.910156 156.492188 191.417969 156.390625 C 191.925781 156.289062 192.441406 156.238281 192.957031 156.238281 C 193.476562 156.238281 193.992188 156.289062 194.5 156.390625 C 195.007812 156.492188 195.503906 156.644531 195.980469 156.839844 C 196.460938 157.039062 196.914062 157.28125 197.347656 157.570312 C 197.777344 157.859375 198.175781 158.1875 198.542969 158.554688 C 198.910156 158.921875 199.238281 159.320312 199.527344 159.75 C 199.8125 160.179688 200.058594 160.636719 200.257812 161.117188 C 200.453125 161.59375 200.605469 162.089844 200.707031 162.597656 C 200.804688 163.105469 200.855469 163.621094 200.855469 164.136719 Z M 200.855469 164.136719 "/><path style=" stroke:none;fill-rule:nonzero;fill:#000000;fill-opacity:1;" d="M 222.796875 164.136719 C 222.796875 164.65625 222.746094 165.171875 222.644531 165.679688 C 222.546875 166.1875 222.394531 166.683594 222.195312 167.160156 C 222 167.640625 221.753906 168.09375 221.46875 168.527344 C 221.179688 168.957031 220.851562 169.355469 220.484375 169.722656 C 220.117188 170.089844 219.71875 170.417969 219.289062 170.707031 C 218.855469 170.996094 218.402344 171.238281 217.921875 171.4375 C 217.441406 171.632812 216.949219 171.785156 216.441406 171.886719 C 215.929688 171.988281 215.417969 172.039062 214.898438 172.039062 C 214.378906 172.039062 213.867188 171.988281 213.359375 171.886719 C 212.851562 171.785156 212.355469 171.632812 211.875 171.4375 C 211.398438 171.238281 210.941406 170.996094 210.511719 170.707031 C 210.078125 170.417969 209.679688 170.089844 209.3125 169.722656 C 208.949219 169.355469 208.621094 168.957031 208.332031 168.527344 C 208.042969 168.09375 207.800781 167.640625 207.601562 167.160156 C 207.402344 166.683594 207.253906 166.1875 207.152344 165.679688 C 207.050781 165.171875 207 164.65625 207 164.136719 C 207 163.621094 207.050781 163.105469 207.152344 162.597656 C 207.253906 162.089844 207.402344 161.59375 207.601562 161.117188 C 207.800781 160.636719 208.042969 160.179688 208.332031 159.75 C 208.621094 159.320312 208.949219 158.921875 209.3125 158.554688 C 209.679688 158.1875 210.078125 157.859375 210.511719 157.570312 C 210.941406 157.28125 211.398438 157.039062 211.875 156.839844 C 212.355469 156.644531 212.851562 156.492188 213.359375 156.390625 C 213.867188 156.289062 214.378906 156.238281 214.898438 156.238281 C 215.417969 156.238281 215.929688 156.289062 216.441406 156.390625 C 216.949219 156.492188 217.441406 156.644531 217.921875 156.839844 C 218.402344 157.039062 218.855469 157.28125 219.289062 157.570312 C 219.71875 157.859375 220.117188 158.1875 220.484375 158.554688 C 220.851562 158.921875 221.179688 159.320312 221.46875 159.75 C 221.753906 160.179688 222 160.636719 222.195312 161.117188 C 222.394531 161.59375 222.546875 162.089844 222.644531 162.597656 C 222.746094 163.105469 222.796875 163.621094 222.796875 164.136719 Z M 222.796875 164.136719 "/><path style=" stroke:none;fill-rule:nonzero;fill:#ffb703;fill-opacity:1;" d="M 204.304688 117.121094 L 179.230469 117.121094 C 154.34375 117.121094 134.03125 137.371094 134.03125 162.257812 L 134.03125 269.140625 L 151.207031 247.199219 L 160.359375 235.476562 L 178.855469 211.84375 L 204.242188 211.84375 C 230.382812 211.84375 251.632812 190.59375 251.632812 164.453125 C 251.695312 138.3125 230.445312 117.121094 204.304688 117.121094 Z M 204.304688 194.667969 L 170.578125 194.667969 L 160.421875 207.582031 L 151.269531 219.304688 L 151.269531 162.257812 C 151.269531 146.835938 163.808594 134.300781 179.292969 134.300781 L 204.367188 134.300781 C 221.042969 134.300781 234.582031 147.839844 234.582031 164.515625 C 234.582031 181.191406 220.980469 194.667969 204.304688 194.667969 Z M 204.304688 194.667969 "/><g clip-rule="nonzero" clip-path="url(#670c2f6049)"><path style=" stroke:none;fill-rule:nonzero;fill:#000000;fill-opacity:1;" d="M 204.679688 79.761719 L 165.125 79.761719 C 127.824219 79.761719 97.484375 110.101562 97.484375 147.402344 L 97.484375 374.082031 L 175.59375 324.558594 L 175.59375 253.78125 L 204.679688 253.78125 C 252.636719 253.78125 291.691406 214.789062 291.691406 166.769531 C 291.691406 118.816406 252.636719 79.761719 204.679688 79.761719 Z M 204.679688 236.542969 L 186.1875 236.542969 L 179.605469 245.070312 L 172.898438 253.71875 L 158.355469 272.589844 L 158.355469 315.027344 L 114.660156 342.738281 L 114.660156 147.402344 C 114.660156 119.566406 137.292969 96.9375 165.125 96.9375 L 204.679688 96.9375 C 243.171875 96.9375 274.515625 128.28125 274.515625 166.769531 C 274.515625 205.261719 243.171875 236.542969 204.679688 236.542969 Z M 204.679688 236.542969 "/></g><g clip-rule="nonzero" clip-path="url(#e247f64b4e)"><g clip-rule="nonzero" clip-path="url(#91d3d306c8)"><path style=" stroke:none;fill-rule:nonzero;fill:#ffb703;fill-opacity:1;" d="M 154.890625 152.171875 L 227.113281 152.171875 L 227.113281 176.152344 L 154.890625 176.152344 Z M 154.890625 152.171875 "/></g></g><g clip-rule="nonzero" clip-path="url(#096f90e421)"><path style=" stroke:none;fill-rule:nonzero;fill:#000000;fill-opacity:1;" d="M 226.730469 168.019531 C 226.730469 168.851562 226.050781 169.53125 225.210938 169.53125 C 224.703125 169.53125 224.25 169.28125 223.976562 168.898438 L 186.152344 168.898438 C 185.851562 168.898438 185.574219 168.738281 185.421875 168.484375 L 185.167969 168.054688 L 183.234375 164.792969 L 181.824219 168.054688 L 180.644531 170.78125 C 180.511719 171.09375 180.203125 171.296875 179.859375 171.289062 C 179.515625 171.289062 179.210938 171.078125 179.082031 170.761719 L 178.566406 169.488281 L 173.554688 186.550781 C 173.449219 186.914062 173.117188 187.15625 172.742188 187.15625 C 172.710938 187.15625 172.679688 187.15625 172.648438 187.152344 C 172.238281 187.109375 171.921875 186.773438 171.898438 186.367188 L 170.78125 168.054688 L 169.949219 154.453125 L 167.421875 168.054688 L 166.90625 170.816406 C 166.839844 171.183594 166.53125 171.464844 166.15625 171.5 C 165.78125 171.539062 165.429688 171.324219 165.285156 170.976562 L 164.105469 168.054688 L 162.71875 164.621094 L 161.09375 168.054688 L 160.914062 168.433594 C 160.769531 168.730469 160.46875 168.917969 160.140625 168.917969 L 158.734375 168.917969 L 157.796875 168.925781 C 157.519531 169.308594 157.082031 169.53125 156.574219 169.53125 C 155.734375 169.53125 155.054688 168.851562 155.054688 168.019531 C 155.054688 167.183594 155.734375 166.507812 156.574219 166.507812 C 157.113281 166.507812 157.570312 166.808594 157.839844 167.230469 L 158.75 167.238281 L 159.601562 167.238281 L 162.011719 162.152344 C 162.15625 161.851562 162.46875 161.660156 162.804688 161.671875 C 163.140625 161.679688 163.4375 161.886719 163.566406 162.199219 L 165.769531 167.652344 L 169.542969 147.375 C 169.621094 146.953125 170 146.65625 170.429688 146.683594 C 170.855469 146.710938 171.195312 147.050781 171.222656 147.476562 L 172.476562 168.054688 L 173.292969 181.429688 L 177.21875 168.054688 L 177.621094 166.683594 C 177.722656 166.339844 178.035156 166.097656 178.394531 166.078125 C 178.753906 166.058594 179.085938 166.269531 179.222656 166.605469 L 179.808594 168.054688 L 179.890625 168.253906 L 179.980469 168.054688 L 182.339844 162.597656 C 182.464844 162.304688 182.742188 162.109375 183.0625 162.089844 C 183.378906 162.070312 183.683594 162.230469 183.847656 162.503906 L 186.636719 167.210938 L 223.929688 167.210938 C 224.195312 166.789062 224.671875 166.507812 225.210938 166.507812 C 226.050781 166.507812 226.730469 167.183594 226.730469 168.019531 Z M 226.730469 168.019531 "/></g></g></svg>